<mxfile host="app.diagrams.net" modified="2022-12-04T08:21:23.820Z" agent="5.0 (Windows NT 10.0; Win64; x64) AppleWebKit/537.36 (KHTML, like Gecko) Chrome/107.0.0.0 Safari/537.36" version="20.6.0" etag="ECzCMXk4IGeW8_bKemXX" type="github">
  <diagram id="lWLraijqNVKEu7DmH__e" name="페이지-1">
    <mxGraphModel dx="2249" dy="754" grid="1" gridSize="10" guides="1" tooltips="1" connect="1" arrows="1" fold="1" page="1" pageScale="1" pageWidth="827" pageHeight="1169" math="0" shadow="0">
      <root>
        <mxCell id="0" />
        <mxCell id="1" parent="0" />
        <mxCell id="otujn-Szl1oxt65NMVmF-5" value="" style="edgeStyle=orthogonalEdgeStyle;rounded=0;orthogonalLoop=1;jettySize=auto;html=1;fontSize=18;" edge="1" parent="1" source="otujn-Szl1oxt65NMVmF-1" target="otujn-Szl1oxt65NMVmF-2">
          <mxGeometry relative="1" as="geometry" />
        </mxCell>
        <mxCell id="otujn-Szl1oxt65NMVmF-1" value="&lt;b style=&quot;font-size: 18px;&quot;&gt;Impedance&lt;br&gt;Controller&lt;/b&gt;" style="rounded=0;whiteSpace=wrap;html=1;" vertex="1" parent="1">
          <mxGeometry x="80" y="240" width="200" height="80" as="geometry" />
        </mxCell>
        <mxCell id="otujn-Szl1oxt65NMVmF-6" value="" style="edgeStyle=orthogonalEdgeStyle;rounded=0;orthogonalLoop=1;jettySize=auto;html=1;fontSize=18;" edge="1" parent="1" source="otujn-Szl1oxt65NMVmF-2" target="otujn-Szl1oxt65NMVmF-3">
          <mxGeometry relative="1" as="geometry" />
        </mxCell>
        <mxCell id="otujn-Szl1oxt65NMVmF-2" value="&lt;span style=&quot;font-size: 18px;&quot;&gt;&lt;b&gt;Dynamics&lt;/b&gt;&lt;/span&gt;" style="rounded=0;whiteSpace=wrap;html=1;" vertex="1" parent="1">
          <mxGeometry x="481" y="240" width="200" height="80" as="geometry" />
        </mxCell>
        <mxCell id="otujn-Szl1oxt65NMVmF-7" value="" style="edgeStyle=orthogonalEdgeStyle;rounded=0;orthogonalLoop=1;jettySize=auto;html=1;fontSize=18;" edge="1" parent="1" source="otujn-Szl1oxt65NMVmF-3" target="otujn-Szl1oxt65NMVmF-4">
          <mxGeometry relative="1" as="geometry" />
        </mxCell>
        <mxCell id="otujn-Szl1oxt65NMVmF-3" value="&lt;span style=&quot;font-size: 18px;&quot;&gt;&lt;b&gt;Torque Command&lt;br&gt;Generator&lt;br&gt;&lt;/b&gt;&lt;/span&gt;" style="rounded=0;whiteSpace=wrap;html=1;" vertex="1" parent="1">
          <mxGeometry x="880" y="240" width="200" height="80" as="geometry" />
        </mxCell>
        <mxCell id="otujn-Szl1oxt65NMVmF-28" style="edgeStyle=orthogonalEdgeStyle;rounded=0;orthogonalLoop=1;jettySize=auto;html=1;exitX=0.5;exitY=1;exitDx=0;exitDy=0;entryX=1;entryY=0.5;entryDx=0;entryDy=0;fontSize=18;startArrow=none;startFill=0;endArrow=classic;endFill=1;" edge="1" parent="1" source="otujn-Szl1oxt65NMVmF-4" target="otujn-Szl1oxt65NMVmF-24">
          <mxGeometry relative="1" as="geometry" />
        </mxCell>
        <mxCell id="otujn-Szl1oxt65NMVmF-29" style="edgeStyle=orthogonalEdgeStyle;rounded=0;orthogonalLoop=1;jettySize=auto;html=1;exitX=0.5;exitY=1;exitDx=0;exitDy=0;entryX=1;entryY=0.5;entryDx=0;entryDy=0;fontSize=18;startArrow=none;startFill=0;endArrow=classic;endFill=1;" edge="1" parent="1" source="otujn-Szl1oxt65NMVmF-4" target="otujn-Szl1oxt65NMVmF-25">
          <mxGeometry relative="1" as="geometry" />
        </mxCell>
        <mxCell id="otujn-Szl1oxt65NMVmF-4" value="&lt;span style=&quot;font-size: 18px;&quot;&gt;&lt;b&gt;Servo Drive&lt;/b&gt;&lt;/span&gt;" style="rounded=0;whiteSpace=wrap;html=1;" vertex="1" parent="1">
          <mxGeometry x="1280" y="240" width="200" height="80" as="geometry" />
        </mxCell>
        <mxCell id="otujn-Szl1oxt65NMVmF-18" value="" style="edgeStyle=orthogonalEdgeStyle;rounded=0;orthogonalLoop=1;jettySize=auto;html=1;fontSize=18;" edge="1" parent="1" source="otujn-Szl1oxt65NMVmF-8" target="otujn-Szl1oxt65NMVmF-1">
          <mxGeometry relative="1" as="geometry" />
        </mxCell>
        <mxCell id="otujn-Szl1oxt65NMVmF-20" style="edgeStyle=orthogonalEdgeStyle;rounded=0;orthogonalLoop=1;jettySize=auto;html=1;exitX=0;exitY=0.5;exitDx=0;exitDy=0;fontSize=18;startArrow=classic;startFill=1;endArrow=none;endFill=0;" edge="1" parent="1" source="otujn-Szl1oxt65NMVmF-8">
          <mxGeometry relative="1" as="geometry">
            <mxPoint x="90" y="400" as="targetPoint" />
          </mxGeometry>
        </mxCell>
        <mxCell id="otujn-Szl1oxt65NMVmF-8" value="" style="ellipse;whiteSpace=wrap;html=1;aspect=fixed;fontSize=18;" vertex="1" parent="1">
          <mxGeometry x="170" y="390" width="20" height="20" as="geometry" />
        </mxCell>
        <mxCell id="otujn-Szl1oxt65NMVmF-15" value="" style="edgeStyle=orthogonalEdgeStyle;rounded=0;orthogonalLoop=1;jettySize=auto;html=1;fontSize=18;" edge="1" parent="1" source="otujn-Szl1oxt65NMVmF-11" target="otujn-Szl1oxt65NMVmF-1">
          <mxGeometry relative="1" as="geometry" />
        </mxCell>
        <mxCell id="otujn-Szl1oxt65NMVmF-11" value="&lt;b&gt;Safety Weight&lt;/b&gt;" style="text;html=1;strokeColor=none;fillColor=none;align=center;verticalAlign=middle;whiteSpace=wrap;rounded=0;fontSize=18;" vertex="1" parent="1">
          <mxGeometry x="110" y="140" width="140" height="30" as="geometry" />
        </mxCell>
        <mxCell id="otujn-Szl1oxt65NMVmF-13" value="&lt;b&gt;+&lt;/b&gt;" style="text;html=1;strokeColor=none;fillColor=none;align=center;verticalAlign=middle;whiteSpace=wrap;rounded=0;fontSize=18;" vertex="1" parent="1">
          <mxGeometry x="140" y="360" width="30" height="30" as="geometry" />
        </mxCell>
        <mxCell id="otujn-Szl1oxt65NMVmF-14" value="&lt;b&gt;-&lt;/b&gt;" style="text;html=1;strokeColor=none;fillColor=none;align=center;verticalAlign=middle;whiteSpace=wrap;rounded=0;fontSize=18;" vertex="1" parent="1">
          <mxGeometry x="190" y="410" width="30" height="30" as="geometry" />
        </mxCell>
        <mxCell id="otujn-Szl1oxt65NMVmF-21" value="" style="rounded=0;whiteSpace=wrap;html=1;" vertex="1" parent="1">
          <mxGeometry x="-20" y="330" width="110" height="140" as="geometry" />
        </mxCell>
        <mxCell id="otujn-Szl1oxt65NMVmF-23" style="edgeStyle=orthogonalEdgeStyle;rounded=0;orthogonalLoop=1;jettySize=auto;html=1;exitX=0;exitY=0.5;exitDx=0;exitDy=0;entryX=0.5;entryY=1;entryDx=0;entryDy=0;fontSize=18;startArrow=none;startFill=0;endArrow=classic;endFill=1;" edge="1" parent="1" source="otujn-Szl1oxt65NMVmF-22" target="otujn-Szl1oxt65NMVmF-8">
          <mxGeometry relative="1" as="geometry" />
        </mxCell>
        <mxCell id="otujn-Szl1oxt65NMVmF-30" style="edgeStyle=orthogonalEdgeStyle;rounded=0;orthogonalLoop=1;jettySize=auto;html=1;exitX=0.5;exitY=0;exitDx=0;exitDy=0;fontSize=18;startArrow=none;startFill=0;endArrow=classic;endFill=1;" edge="1" parent="1" source="otujn-Szl1oxt65NMVmF-22" target="otujn-Szl1oxt65NMVmF-2">
          <mxGeometry relative="1" as="geometry" />
        </mxCell>
        <mxCell id="otujn-Szl1oxt65NMVmF-22" value="" style="rounded=0;whiteSpace=wrap;html=1;" vertex="1" parent="1">
          <mxGeometry x="526" y="390" width="110" height="160" as="geometry" />
        </mxCell>
        <mxCell id="otujn-Szl1oxt65NMVmF-27" style="edgeStyle=orthogonalEdgeStyle;rounded=0;orthogonalLoop=1;jettySize=auto;html=1;exitX=0;exitY=0.5;exitDx=0;exitDy=0;entryX=1;entryY=0.25;entryDx=0;entryDy=0;fontSize=18;startArrow=none;startFill=0;endArrow=classic;endFill=1;" edge="1" parent="1" source="otujn-Szl1oxt65NMVmF-24" target="otujn-Szl1oxt65NMVmF-22">
          <mxGeometry relative="1" as="geometry" />
        </mxCell>
        <mxCell id="otujn-Szl1oxt65NMVmF-24" value="&lt;span style=&quot;font-size: 18px;&quot;&gt;&lt;b&gt;Forward Kinematics&lt;br&gt;&lt;/b&gt;&lt;/span&gt;" style="rounded=0;whiteSpace=wrap;html=1;" vertex="1" parent="1">
          <mxGeometry x="880" y="390" width="200" height="80" as="geometry" />
        </mxCell>
        <mxCell id="otujn-Szl1oxt65NMVmF-26" style="edgeStyle=orthogonalEdgeStyle;rounded=0;orthogonalLoop=1;jettySize=auto;html=1;exitX=0;exitY=0.5;exitDx=0;exitDy=0;entryX=1;entryY=0.75;entryDx=0;entryDy=0;fontSize=18;startArrow=none;startFill=0;endArrow=classic;endFill=1;" edge="1" parent="1" source="otujn-Szl1oxt65NMVmF-25" target="otujn-Szl1oxt65NMVmF-22">
          <mxGeometry relative="1" as="geometry" />
        </mxCell>
        <mxCell id="otujn-Szl1oxt65NMVmF-25" value="&lt;span style=&quot;font-size: 18px;&quot;&gt;&lt;b&gt;Sensor&lt;br&gt;&lt;/b&gt;&lt;/span&gt;" style="rounded=0;whiteSpace=wrap;html=1;" vertex="1" parent="1">
          <mxGeometry x="880" y="470" width="200" height="80" as="geometry" />
        </mxCell>
        <mxCell id="otujn-Szl1oxt65NMVmF-31" value="Cartesian Space&lt;br&gt;Force" style="text;html=1;strokeColor=none;fillColor=none;align=center;verticalAlign=middle;whiteSpace=wrap;rounded=0;fontSize=18;" vertex="1" parent="1">
          <mxGeometry x="310" y="240" width="150" height="30" as="geometry" />
        </mxCell>
        <mxCell id="otujn-Szl1oxt65NMVmF-32" value="Joint Space&lt;br&gt;Force" style="text;html=1;strokeColor=none;fillColor=none;align=center;verticalAlign=middle;whiteSpace=wrap;rounded=0;fontSize=18;" vertex="1" parent="1">
          <mxGeometry x="710" y="240" width="150" height="30" as="geometry" />
        </mxCell>
        <mxCell id="otujn-Szl1oxt65NMVmF-33" value="Motor&lt;br&gt;Torque" style="text;html=1;strokeColor=none;fillColor=none;align=center;verticalAlign=middle;whiteSpace=wrap;rounded=0;fontSize=18;" vertex="1" parent="1">
          <mxGeometry x="1110" y="240" width="150" height="30" as="geometry" />
        </mxCell>
      </root>
    </mxGraphModel>
  </diagram>
</mxfile>
